# xmcd CD database file
#
# Track frame offsets:
#	150
#	8547
#	33206
#	64405
#	94442
#	115788
#	145454
#	168494
#	196573
#	216075
#
# Disc length: 3013 seconds
#
# Revision: 0
# Processed by: cddbd v1.4PL0 Copyright (c) Steve Scherf et al.
# Submitted via: CDex 1.50Beta7
#
DISCID=850bc30a
DTITLE=EZ pour Spout - Don't Shave The Feeling
DYEAR=2001
DGENRE=Jazz
TTITLE0=A - Team
TTITLE1=Back In Black
TTITLE2=Heart Shaped box
TTITLE3=Kashmir
TTITLE4=Don't Make Me Over
TTITLE5=Can't Take My Eyes Off Of you
TTITLE6=Walk On By
TTITLE7=Politician
TTITLE8=Tomorrow
TTITLE9=My Guitar...
EXTD=YEAR: 2001
EXTT0=
EXTT1=
EXTT2=
EXTT3=
EXTT4=
EXTT5=
EXTT6=
EXTT7=
EXTT8=
EXTT9=
PLAYORDER=
